<?xml version="1.0" standalone="no"?>
<!DOCTYPE svg PUBLIC "-//W3C//DTD SVG 20010904//EN"
 "http://www.w3.org/TR/2001/REC-SVG-20010904/DTD/svg10.dtd">
<svg version="1.0" xmlns="http://www.w3.org/2000/svg"
 width="1775.000000pt" height="500.000000pt" viewBox="0 0 1775.000000 500.000000"
 preserveAspectRatio="xMidYMid meet">

<g transform="translate(0.000000,500.000000) scale(0.100000,-0.100000)"
fill="#000000" stroke="none">
<path d="M2130 4974 c-166 -19 -233 -30 -355 -59 -341 -83 -599 -209 -897
-438 -247 -192 -513 -531 -634 -809 -20 -46 -46 -105 -59 -133 -20 -44 -35
-93 -90 -280 -74 -253 -85 -693 -25 -994 24 -117 90 -339 124 -413 13 -29 38
-84 55 -123 40 -87 108 -206 180 -310 97 -142 80 -139 143 -32 31 50 67 112
80 137 14 25 42 72 62 105 20 33 39 69 42 80 3 13 -15 57 -50 121 -107 195
-169 382 -210 629 -19 117 -14 413 8 545 18 105 73 319 86 335 4 5 22 46 40
90 78 198 204 380 395 570 203 203 379 317 641 415 409 154 868 154 1279 0
246 -92 445 -220 636 -410 135 -134 214 -234 292 -370 27 -47 53 -89 57 -95 4
-5 24 -50 44 -100 20 -49 41 -98 46 -107 16 -28 68 -237 86 -343 21 -122 24
-414 5 -530 -38 -239 -110 -456 -214 -639 l-56 -100 26 -45 c14 -25 38 -66 53
-91 30 -49 87 -149 136 -236 l31 -56 30 39 c33 42 120 175 175 268 95 160 206
465 247 680 57 297 52 659 -13 925 -54 222 -98 339 -204 549 -73 142 -120 217
-241 377 -72 96 -288 305 -401 387 -58 42 -116 85 -131 96 -67 51 -337 187
-474 238 -79 29 -342 94 -440 109 -96 14 -433 26 -505 18z"/>
<path d="M2280 4014 c-11 -22 -30 -55 -42 -74 -87 -145 -119 -201 -143 -245
-14 -27 -53 -95 -85 -150 -32 -55 -82 -140 -110 -190 -28 -49 -69 -119 -90
-155 -71 -122 -159 -275 -210 -365 -29 -49 -78 -135 -110 -190 -33 -55 -73
-127 -91 -160 -17 -33 -44 -78 -59 -100 -15 -22 -44 -71 -64 -110 -20 -38 -53
-97 -73 -130 -20 -33 -54 -91 -76 -130 -54 -94 -134 -231 -176 -302 -19 -32
-50 -87 -69 -123 -19 -36 -49 -87 -67 -115 -18 -27 -47 -77 -64 -110 -18 -33
-59 -105 -91 -160 -33 -55 -72 -122 -86 -150 -15 -27 -41 -72 -59 -100 -18
-27 -48 -79 -67 -115 -19 -36 -53 -95 -76 -132 -23 -37 -42 -70 -42 -73 0 -3
117 -5 260 -5 l260 0 25 48 c14 26 45 79 68 118 23 39 60 102 81 140 21 38 64
112 95 165 31 53 65 112 75 130 11 19 42 72 69 119 28 47 69 119 92 160 23 41
57 101 76 132 19 32 59 102 90 155 64 111 171 296 291 503 31 52 68 119 84
147 16 29 68 119 115 200 48 82 94 162 103 178 9 17 44 75 76 130 33 55 70
119 82 143 12 23 27 42 32 42 6 0 19 -17 29 -38 11 -20 30 -55 44 -77 13 -22
45 -76 70 -120 72 -127 116 -203 176 -305 50 -86 113 -195 184 -320 14 -25 49
-85 78 -135 29 -49 79 -136 111 -192 33 -56 68 -117 78 -135 11 -18 43 -73 71
-123 28 -49 78 -135 110 -190 32 -55 75 -129 95 -165 20 -36 62 -108 92 -160
115 -198 173 -298 228 -395 31 -55 64 -112 74 -127 l18 -28 254 0 c143 0 254
4 254 9 0 5 -16 35 -35 67 -19 33 -48 86 -66 119 -17 33 -46 83 -64 110 -17
28 -48 79 -67 115 -20 36 -59 106 -88 155 -29 50 -76 131 -105 180 -29 50 -78
135 -110 190 -32 55 -74 129 -95 165 -20 36 -63 110 -95 165 -75 129 -154 265
-224 388 -57 99 -81 140 -186 322 -78 134 -163 281 -225 390 -28 50 -73 126
-98 170 -26 44 -60 104 -77 133 -16 30 -44 77 -62 105 -18 29 -48 84 -69 122
-20 39 -44 81 -54 95 -10 14 -38 61 -62 105 -60 107 -158 276 -174 299 -12 17
-14 16 -34 -20z"/>
<path d="M7565 3846 c-370 -85 -590 -425 -521 -806 48 -263 240 -465 505 -531
121 -30 282 -24 400 16 215 73 375 244 432 462 44 167 21 375 -57 523 -75 143
-215 261 -375 314 -69 24 -105 29 -204 32 -78 2 -141 -1 -180 -10z m299 -360
c107 -52 160 -156 160 -311 0 -123 -22 -183 -94 -256 -65 -65 -118 -85 -227
-83 -129 2 -218 64 -265 184 -25 64 -31 218 -10 287 15 50 68 130 103 156 86
63 231 73 333 23z"/>
<path d="M15525 3846 c-370 -85 -590 -425 -521 -806 48 -263 240 -465 505
-531 121 -30 282 -24 400 16 160 54 300 172 375 315 105 199 105 471 0 670
-75 143 -215 261 -375 314 -69 24 -105 29 -204 32 -78 2 -141 -1 -180 -10z
m299 -360 c107 -52 160 -156 160 -311 0 -123 -22 -183 -94 -256 -65 -65 -118
-85 -227 -83 -129 2 -218 64 -265 184 -25 64 -31 218 -10 287 15 50 68 130
103 156 86 63 231 73 333 23z"/>
<path d="M6480 3370 c0 -529 1 -520 -68 -541 -73 -22 -130 22 -146 114 l-7 37
-184 0 -184 0 5 -52 c24 -234 134 -368 345 -423 91 -24 271 -17 352 14 107 42
184 119 229 228 23 58 23 60 26 576 l3 517 -186 0 -185 0 0 -470z"/>
<path d="M8580 3170 l0 -670 185 0 185 0 0 670 0 670 -185 0 -185 0 0 -670z"/>
<path d="M9160 3170 l0 -670 185 0 185 0 2 369 3 370 245 -369 245 -370 188 0
187 0 0 670 0 670 -185 0 -185 0 0 -377 c0 -262 -3 -374 -10 -367 -6 6 -118
175 -249 375 l-238 364 -186 3 -187 2 0 -670z"/>
<path d="M10880 3837 c0 -4 388 -1127 437 -1264 l26 -73 237 0 238 0 12 33 c6
17 108 312 226 655 118 343 217 629 221 637 4 13 -24 15 -194 15 l-200 0 -151
-482 c-83 -266 -153 -476 -156 -468 -9 24 -296 942 -296 946 0 2 -90 4 -200 4
-110 0 -200 -2 -200 -3z"/>
<path d="M12552 3177 c-133 -365 -242 -667 -242 -670 0 -4 88 -7 195 -7 l194
0 33 108 34 107 240 3 240 2 35 -107 35 -108 198 -3 c112 -1 196 1 194 6 -1 5
-111 307 -243 671 l-240 661 -216 0 -216 0 -241 -663z m524 51 c37 -112 69
-209 72 -215 3 -10 -28 -13 -137 -13 -105 0 -141 3 -141 12 0 12 133 418 136
418 2 0 33 -91 70 -202z"/>
<path d="M13840 3170 l0 -670 185 0 185 0 0 224 0 223 153 6 c162 6 220 18
306 61 209 107 286 367 176 593 -40 82 -94 135 -180 177 -101 49 -160 56 -507
56 l-318 0 0 -670z m599 352 c54 -27 74 -62 74 -127 0 -107 -54 -145 -205
-145 l-98 0 0 145 0 145 98 0 c73 0 106 -4 131 -18z"/>
<path d="M16540 3171 l0 -671 185 0 185 0 0 246 0 245 22 -3 c17 -2 49 -54
152 -245 l131 -243 208 0 c115 0 206 3 204 8 -16 28 -209 363 -248 429 l-48
82 64 29 c86 41 148 100 187 180 44 88 51 215 19 319 -38 124 -137 221 -271
265 -61 21 -87 22 -427 26 l-363 3 0 -670z m629 341 c51 -26 75 -63 75 -119
-1 -112 -48 -143 -218 -143 l-116 0 0 140 0 140 113 0 c87 0 120 -4 146 -18z"/>
<path d="M6733 2161 c-140 -48 -223 -179 -210 -332 15 -176 143 -291 325 -290
203 1 341 166 312 373 -28 197 -232 317 -427 249z m184 -161 c44 -26 63 -58
70 -117 7 -65 -10 -114 -53 -153 -29 -25 -43 -30 -87 -30 -65 0 -113 27 -133
75 -20 48 -18 133 4 174 36 66 133 91 199 51z"/>
<path d="M10052 2170 c-97 -21 -177 -86 -220 -180 -25 -56 -23 -213 4 -271 52
-112 140 -170 269 -177 44 -2 99 1 122 7 60 16 132 69 170 125 31 46 33 53 33
137 l0 89 -165 0 -165 0 0 -60 0 -60 85 0 c96 0 104 -8 56 -54 -55 -53 -159
-45 -217 15 -25 26 -29 38 -32 102 -3 80 13 120 64 153 38 26 113 23 151 -4
27 -19 44 -22 123 -22 101 0 101 -1 65 70 -50 98 -209 158 -343 130z"/>
<path d="M5940 1855 l0 -317 198 4 c221 3 255 12 300 78 46 69 21 185 -50 224
l-35 20 31 21 c66 44 85 151 39 213 -45 61 -70 67 -285 70 l-198 4 0 -317z
m314 159 c21 -20 20 -53 -1 -76 -12 -14 -31 -18 -80 -18 l-63 0 0 55 0 55 64
0 c45 0 69 -5 80 -16z m12 -239 c18 -19 23 -31 19 -48 -12 -38 -35 -48 -105
-45 l-65 3 -3 44 c-5 67 -1 71 68 71 52 0 65 -4 86 -25z"/>
<path d="M7250 1855 l0 -315 85 0 85 0 0 170 c0 94 4 170 9 170 4 0 58 -76
119 -170 l111 -170 86 0 85 0 0 315 0 315 -85 0 -85 0 -2 -176 -3 -175 -114
175 -113 176 -89 0 -89 0 0 -315z"/>
<path d="M7900 2100 l0 -70 80 0 80 0 0 -245 0 -245 90 0 90 0 0 245 0 245 80
0 80 0 0 70 0 70 -250 0 -250 0 0 -70z"/>
<path d="M8656 2162 c-3 -5 -53 -141 -112 -303 -59 -162 -109 -300 -112 -307
-3 -10 16 -12 89 -10 l93 3 15 48 15 48 115 -3 115 -3 15 -47 15 -48 92 0 92
0 -33 93 c-18 50 -69 191 -113 312 l-80 220 -100 3 c-55 1 -103 -1 -106 -6z
m138 -287 c14 -44 26 -83 26 -88 0 -4 -29 -7 -64 -7 l-64 0 31 95 c17 52 34
91 38 87 4 -4 18 -43 33 -87z"/>
<path d="M9150 1855 l0 -315 85 0 85 0 0 170 c0 94 4 170 9 170 4 0 58 -76
119 -170 l111 -170 86 0 85 0 0 315 0 315 -85 0 -85 0 -2 -176 -3 -175 -114
175 -113 176 -89 0 -89 0 0 -315z"/>
<path d="M1278 1053 c-30 -54 -79 -141 -110 -194 l-55 -96 36 -21 c20 -12 75
-41 123 -64 l88 -43 0 -82 0 -83 -562 0 -563 0 -19 -33 c-11 -17 -43 -72 -71
-122 -29 -49 -73 -127 -98 -171 -26 -45 -47 -91 -47 -103 l0 -21 905 0 905 0
0 464 0 464 -47 11 c-65 17 -220 83 -330 142 -50 27 -94 49 -96 49 -3 0 -29
-44 -59 -97z"/>
<path d="M3190 1109 c-70 -42 -214 -105 -325 -142 l-70 -24 -3 -461 -2 -462
920 0 c568 0 920 4 920 9 0 6 -4 12 -9 15 -5 4 -33 49 -63 102 -123 221 -140
251 -163 286 l-25 38 -565 0 -565 0 0 80 0 81 73 33 c111 51 188 101 176 113
-11 11 -83 136 -165 286 -26 48 -52 87 -58 86 -6 0 -40 -18 -76 -40z"/>
</g>
</svg>
